<svg width="32" height="37" viewBox="0 0 32 37" fill="none" xmlns="http://www.w3.org/2000/svg">
<g clip-path="url(#clip0_2_250)">
<path d="M0.376396 15.2871C0.376396 10.6254 4.15218 6.84961 8.8139 6.84961H9.3764C10.6209 6.84961 11.6264 7.85508 11.6264 9.09961C11.6264 10.3441 10.6209 11.3496 9.3764 11.3496H8.8139C6.64124 11.3496 4.8764 13.1145 4.8764 15.2871V15.8496H9.3764C11.8584 15.8496 13.8764 17.8676 13.8764 20.3496V24.8496C13.8764 27.3316 11.8584 29.3496 9.3764 29.3496H4.8764C2.39437 29.3496 0.376396 27.3316 0.376396 24.8496V22.5996V20.3496V15.2871ZM18.3764 15.2871C18.3764 10.6254 22.1522 6.84961 26.8139 6.84961H27.3764C28.6209 6.84961 29.6264 7.85508 29.6264 9.09961C29.6264 10.3441 28.6209 11.3496 27.3764 11.3496H26.8139C24.6412 11.3496 22.8764 13.1145 22.8764 15.2871V15.8496H27.3764C29.8584 15.8496 31.8764 17.8676 31.8764 20.3496V24.8496C31.8764 27.3316 29.8584 29.3496 27.3764 29.3496H22.8764C20.3944 29.3496 18.3764 27.3316 18.3764 24.8496V22.5996V20.3496V15.2871Z" fill="#FF2D55"/>
</g>
<defs>
<clipPath id="clip0_2_250">
<rect width="31.5" height="36" fill="white" transform="translate(0.376396 0.0996094)"/>
</clipPath>
</defs>
</svg>
