<svg width="25" height="25" viewBox="0 0 25 25" fill="none" xmlns="http://www.w3.org/2000/svg">
<path d="M0.483292 12.8008C0.483292 6.17336 5.8826 0.800781 12.51 0.800781C19.1374 0.800781 24.5367 6.17336 24.5367 12.8008C24.5367 19.4282 19.1374 24.8008 12.51 24.8008C5.8826 24.8008 0.483292 19.4282 0.483292 12.8008Z" fill="#EF4444" fill-opacity="0.2"/>
<path d="M16.6013 9.86807C16.943 9.52627 16.943 8.97119 16.6013 8.62939C16.2595 8.2876 15.7044 8.2876 15.3626 8.62939L12.4833 11.5114L9.60125 8.63213C9.25945 8.29033 8.70438 8.29033 8.36258 8.63213C8.02078 8.97393 8.02078 9.529 8.36258 9.8708L11.2446 12.7501L8.36531 15.6321C8.02352 15.9739 8.02352 16.529 8.36531 16.8708C8.70711 17.2126 9.26219 17.2126 9.60399 16.8708L12.4833 13.9888L15.3653 16.8681C15.7071 17.2099 16.2622 17.2099 16.604 16.8681C16.9458 16.5263 16.9458 15.9712 16.604 15.6294L13.722 12.7501L16.6013 9.86807Z" fill="#EF4444"/>
</svg>
