<svg width="25" height="25" viewBox="0 0 25 25" fill="none" xmlns="http://www.w3.org/2000/svg">
<path d="M0.90863 12.8008C0.90863 6.17336 6.30794 0.800781 12.9354 0.800781C19.5628 0.800781 24.9621 6.17336 24.9621 12.8008C24.9621 19.4282 19.5628 24.8008 12.9354 24.8008C6.30794 24.8008 0.90863 19.4282 0.90863 12.8008Z" fill="#22C55E" fill-opacity="0.2"/>
<g clip-path="url(#clip0_2_152)">
<path d="M18.7766 8.63208C19.1184 8.97388 19.1184 9.52895 18.7766 9.87075L11.7766 16.8708C11.4348 17.2125 10.8797 17.2125 10.5379 16.8708L7.0379 13.3708C6.69611 13.029 6.69611 12.4739 7.0379 12.1321C7.3797 11.7903 7.93478 11.7903 8.27657 12.1321L11.1586 15.0114L17.5406 8.63208C17.8824 8.29028 18.4375 8.29028 18.7793 8.63208H18.7766Z" fill="#22C55E"/>
</g>
<defs>
<clipPath id="clip0_2_152">
<rect width="12.25" height="14" fill="white" transform="translate(6.78363 5.75)"/>
</clipPath>
</defs>
</svg>
