<svg width="73" height="73" viewBox="0 0 73 73" fill="none" xmlns="http://www.w3.org/2000/svg">
<mask id="mask0_152_1384" style="mask-type:luminance" maskUnits="userSpaceOnUse" x="0" y="0" width="72" height="72">
<path d="M71.8068 0.893066H0.793152V71.9068H71.8068V0.893066Z" fill="white"/>
</mask>
<g mask="url(#mask0_152_1384)">
<path d="M16.574 8.78369C14.4041 8.78369 12.6288 10.559 12.6288 12.7289V60.0714C12.6288 62.2412 14.4041 64.0166 16.574 64.0166H56.026C58.1959 64.0166 59.9712 62.2412 59.9712 60.0714V20.6193L48.1356 8.78369H16.574ZM16.574 12.7289H44.1904V24.5645H56.026V60.0714H16.574V12.7289ZM20.5192 32.4549V36.4001H52.0808V32.4549H20.5192ZM20.5192 40.3453V44.2905H52.0808V40.3453H20.5192ZM20.5192 48.2357V52.181H40.2452V48.2357H20.5192Z" fill="#FF2D55"/>
</g>
</svg>
