<svg width="73" height="73" viewBox="0 0 73 73" fill="none" xmlns="http://www.w3.org/2000/svg">
<path d="M44.0616 27.7746V39.2074C44.0616 39.5028 43.8366 39.7278 43.5413 39.7278H41.7132C41.5304 39.7278 41.3757 39.6293 41.2913 39.5168L36.046 32.4434V39.2215C36.046 39.5168 35.821 39.7418 35.5257 39.7418H33.6976C33.4023 39.7418 33.1773 39.5168 33.1773 39.2215V27.7887C33.1773 27.4934 33.4023 27.2684 33.6976 27.2684H35.5116C35.6663 27.2684 35.8491 27.3528 35.9335 27.4934L41.1788 34.5668V27.7887C41.1788 27.4934 41.4038 27.2684 41.6991 27.2684H43.5273C43.8226 27.2543 44.0616 27.4934 44.0616 27.7606V27.7746ZM30.8851 27.2543H29.057C28.7616 27.2543 28.5366 27.4793 28.5366 27.7746V39.2074C28.5366 39.5028 28.7616 39.7278 29.057 39.7278H30.8851C31.1804 39.7278 31.4054 39.5028 31.4054 39.2074V27.7746C31.4054 27.5074 31.1804 27.2543 30.8851 27.2543ZM26.4695 36.8309H21.4632V27.7746C21.4632 27.4793 21.2382 27.2543 20.9429 27.2543H19.1148C18.8195 27.2543 18.5945 27.4793 18.5945 27.7746V39.2074C18.5945 39.3481 18.6366 39.4606 18.7351 39.559C18.8335 39.6434 18.946 39.6996 19.0866 39.6996H26.4273C26.7226 39.6996 26.9476 39.4746 26.9476 39.1793V37.3512C26.9476 37.084 26.7226 36.8309 26.4554 36.8309H26.4695ZM53.7085 27.2543H46.3538C46.0866 27.2543 45.8335 27.4793 45.8335 27.7746V39.2074C45.8335 39.4746 46.0585 39.7278 46.3538 39.7278H53.6945C53.9898 39.7278 54.2148 39.5028 54.2148 39.2074V37.3653C54.2148 37.0699 53.9898 36.8449 53.6945 36.8449H48.7023V34.9324H53.6945C53.9898 34.9324 54.2148 34.7074 54.2148 34.4121V32.5699C54.2148 32.2746 53.9898 32.0496 53.6945 32.0496H48.7023V30.1231H53.6945C53.9898 30.1231 54.2148 29.8981 54.2148 29.6028V27.7746C54.2007 27.5074 53.9757 27.2543 53.6945 27.2543H53.7085ZM72.3273 13.234V59.0778C72.3132 66.2778 66.407 72.1137 59.1929 72.0996H13.3491C6.14914 72.0856 0.313203 66.1653 0.327265 58.9653V13.1215C0.341328 5.92151 6.26164 0.0855722 13.4616 0.0996347H59.3054C66.5054 0.113697 72.3413 6.01995 72.3273 13.234ZM62.4273 32.9356C62.4273 21.2074 50.657 11.659 36.2148 11.659C21.7726 11.659 10.0023 21.2074 10.0023 32.9356C10.0023 43.4403 19.3257 52.2574 31.9257 53.9309C34.9913 54.5918 34.6398 55.7168 33.9507 59.8512C33.8382 60.5121 33.4163 62.4387 36.2148 61.2715C39.0132 60.1043 51.3038 52.384 56.8163 46.0559C60.6132 41.8793 62.4273 37.6465 62.4273 32.9637V32.9356Z" fill="#FF2D55"/>
</svg>
