<svg width="15" height="15" viewBox="0 0 15 15" fill="none" xmlns="http://www.w3.org/2000/svg">
<path d="M8.59034 6.33126V8.5543C8.59034 8.61172 8.54659 8.65547 8.48916 8.65547H8.1337C8.09815 8.65547 8.06807 8.63633 8.05166 8.61446L7.03174 7.23907V8.55704C7.03174 8.61446 6.98799 8.65821 6.93057 8.65821H6.5751C6.51768 8.65821 6.47393 8.61446 6.47393 8.55704V6.33399C6.47393 6.27657 6.51768 6.23282 6.5751 6.23282H6.92784C6.95792 6.23282 6.99346 6.24922 7.00987 6.27657L8.02979 7.65196V6.33399C8.02979 6.27657 8.07354 6.23282 8.13096 6.23282H8.48643C8.54385 6.23008 8.59034 6.27657 8.59034 6.32852V6.33126ZM6.02823 6.23008H5.67276C5.61534 6.23008 5.57159 6.27383 5.57159 6.33126V8.5543C5.57159 8.61172 5.61534 8.65547 5.67276 8.65547H6.02823C6.08565 8.65547 6.1294 8.61172 6.1294 8.5543V6.33126C6.1294 6.2793 6.08565 6.23008 6.02823 6.23008ZM5.16963 8.09219H4.1962V6.33126C4.1962 6.27383 4.15245 6.23008 4.09502 6.23008H3.73956C3.68213 6.23008 3.63838 6.27383 3.63838 6.33126V8.5543C3.63838 8.58165 3.64659 8.60352 3.66573 8.62266C3.68487 8.63907 3.70674 8.65001 3.73409 8.65001H5.16143C5.21885 8.65001 5.2626 8.60626 5.2626 8.54883V8.19337C5.2626 8.14141 5.21885 8.09219 5.1669 8.09219H5.16963ZM10.4661 6.23008H9.03604C8.98409 6.23008 8.93487 6.27383 8.93487 6.33126V8.5543C8.93487 8.60626 8.97862 8.65547 9.03604 8.65547H10.4634C10.5208 8.65547 10.5646 8.61172 10.5646 8.5543V8.1961C10.5646 8.13868 10.5208 8.09493 10.4634 8.09493H9.49268V7.72305H10.4634C10.5208 7.72305 10.5646 7.6793 10.5646 7.62188V7.26368C10.5646 7.20626 10.5208 7.16251 10.4634 7.16251H9.49268V6.7879H10.4634C10.5208 6.7879 10.5646 6.74415 10.5646 6.68672V6.33126C10.5618 6.2793 10.5181 6.23008 10.4634 6.23008H10.4661ZM14.0864 3.50391V12.418C14.0837 13.818 12.9353 14.9527 11.5325 14.95H2.61846C1.21846 14.9473 0.0836963 13.7961 0.0864307 12.3961V3.48204C0.0891651 2.08204 1.24034 0.947271 2.64034 0.950006H11.5544C12.9544 0.95274 14.0892 2.10118 14.0864 3.50391ZM12.1614 7.33477C12.1614 5.0543 9.87276 3.19766 7.06456 3.19766C4.25635 3.19766 1.96768 5.0543 1.96768 7.33477C1.96768 9.37735 3.78057 11.0918 6.23057 11.4172C6.82666 11.5457 6.75831 11.7645 6.62432 12.5684C6.60245 12.6969 6.52042 13.0715 7.06456 12.8445C7.6087 12.6176 9.99854 11.1164 11.0704 9.88594C11.8087 9.07383 12.1614 8.25079 12.1614 7.34024V7.33477Z" fill="white"/>
</svg>
