<svg width="91" height="73" viewBox="0 0 91 73" fill="none" xmlns="http://www.w3.org/2000/svg">
<path d="M29.9227 49.5996C46.0805 49.5996 59.1727 38.5184 59.1727 24.8496C59.1727 11.1809 46.0805 0.0996094 29.9227 0.0996094C13.7649 0.0996094 0.672682 11.1809 0.672682 24.8496C0.672682 30.2777 2.73987 35.298 6.24143 39.3902C5.74924 40.7121 5.01799 41.8793 4.24456 42.8637C3.56956 43.7355 2.88049 44.4105 2.37424 44.8746C2.12112 45.0996 1.91018 45.2824 1.76956 45.3949C1.69924 45.4512 1.64299 45.4934 1.61487 45.5074L1.58674 45.5355C0.813307 46.1121 0.475807 47.1246 0.785182 48.0387C1.09456 48.9527 1.95237 49.5996 2.92268 49.5996C5.98831 49.5996 9.08206 48.8121 11.6555 47.8418C12.9492 47.3496 14.1586 46.8012 15.2133 46.2387C19.5305 48.3762 24.5508 49.5996 29.9227 49.5996ZM63.6727 24.8496C63.6727 40.6418 49.7367 52.5387 33.2274 53.959C36.6446 64.4215 47.9789 72.0996 61.4227 72.0996C66.7946 72.0996 71.8149 70.8762 76.1461 68.7387C77.2008 69.3012 78.3961 69.8496 79.6899 70.3418C82.2633 71.3121 85.3571 72.0996 88.4227 72.0996C89.393 72.0996 90.2649 71.4668 90.5602 70.5387C90.8555 69.6105 90.5321 68.598 89.7446 68.0215L89.7164 67.9934C89.6883 67.9652 89.632 67.9371 89.5617 67.8809C89.4211 67.7684 89.2102 67.5996 88.9571 67.3605C88.4508 66.8965 87.7617 66.2215 87.0867 65.3496C86.3133 64.3652 85.5821 63.184 85.0899 61.8762C88.5914 57.798 90.6586 52.7777 90.6586 47.3355C90.6586 34.2855 78.7196 23.584 63.5742 22.6559C63.6305 23.373 63.6586 24.1043 63.6586 24.8355L63.6727 24.8496Z" fill="#FF2D55"/>
</svg>
