<svg width="48" height="56" viewBox="0 0 48 56" fill="none" xmlns="http://www.w3.org/2000/svg">
<path d="M24.3 0.383789C20.3548 0.383789 16.6069 1.96187 13.9439 4.92078C11.2808 7.87968 9.5055 12.0221 9.5055 16.1646V20.1098H4.57399C2.40413 20.1098 0.628784 21.8852 0.628784 24.055V51.6715C0.628784 53.8413 2.40413 55.6167 4.57399 55.6167H44.026C46.1959 55.6167 47.9712 53.8413 47.9712 51.6715V24.055C47.9712 21.8852 46.1959 20.1098 44.026 20.1098H39.0945V16.1646C39.0945 12.0221 37.3192 7.87968 34.6562 4.92078C31.9932 1.96187 28.2452 0.383789 24.3 0.383789ZM24.3 4.32899C26.963 4.32899 29.4288 5.41393 31.2041 7.38653C32.9795 9.35913 34.163 12.1208 34.163 15.1783V20.1098H14.437V15.1783C14.437 12.1208 15.6206 9.35913 17.3959 7.38653C19.1712 5.41393 21.637 4.32899 24.3 4.32899ZM24.3 31.9454C26.4699 31.9454 28.2452 33.7208 28.2452 35.8906C28.2452 38.0605 26.4699 39.8358 24.3 39.8358C22.1302 39.8358 20.3548 38.0605 20.3548 35.8906C20.3548 33.7208 22.1302 31.9454 24.3 31.9454Z" fill="#FF2D55"/>
</svg>
