<svg width="41" height="41" viewBox="0 0 41 41" fill="none" xmlns="http://www.w3.org/2000/svg">
<path d="M0.0534058 20.25C0.0534058 9.20431 9.05225 0.25 20.0979 0.25C31.1436 0.25 40.1425 9.20431 40.1425 20.25C40.1425 31.2957 31.1436 40.25 20.0979 40.25C9.05225 40.25 0.0534058 31.2957 0.0534058 20.25Z" fill="#FF2D55" fill-opacity="0.2"/>
<g clip-path="url(#clip0_2_97)">
<path d="M20.1597 14.5121L17.1347 16.9621C16.6315 17.3684 16.5347 18.0996 16.9159 18.6215C17.319 19.1777 18.1034 19.2871 18.644 18.8652L21.7472 16.4527C21.9659 16.284 22.2784 16.3215 22.4503 16.5402C22.6222 16.759 22.5815 17.0715 22.3628 17.2434L21.7097 17.7496L26.0534 21.7496V15.8496H26.0315L25.9097 15.7715L23.6409 14.3184C23.1628 14.0121 22.6034 13.8496 22.0347 13.8496C21.3534 13.8496 20.6909 14.084 20.1597 14.5121ZM20.8722 18.3996L19.2565 19.6559C18.2722 20.4246 16.844 20.2246 16.1065 19.2121C15.4128 18.259 15.5878 16.9277 16.5034 16.1871L19.1034 14.084C18.7409 13.9309 18.3503 13.8527 17.9534 13.8527C17.3659 13.8496 16.794 14.0246 16.3034 14.3496L14.0534 15.8496V22.8496H14.9347L17.7909 25.4559C18.4034 26.0152 19.3503 25.9715 19.9097 25.359C20.0815 25.1684 20.1972 24.9465 20.2565 24.7152L20.7878 25.2027C21.3972 25.7621 22.3472 25.7215 22.9065 25.1121C23.0472 24.959 23.1503 24.7809 23.2159 24.5965C23.8222 25.0027 24.6472 24.9184 25.1565 24.3621C25.7159 23.7527 25.6753 22.8027 25.0659 22.2434L20.8722 18.3996ZM10.5534 15.8496C10.2784 15.8496 10.0534 16.0746 10.0534 16.3496V22.8496C10.0534 23.4027 10.5003 23.8496 11.0534 23.8496H12.0534C12.6065 23.8496 13.0534 23.4027 13.0534 22.8496V15.8496H10.5534ZM11.5534 21.8496C11.686 21.8496 11.8132 21.9023 11.907 21.9961C12.0007 22.0898 12.0534 22.217 12.0534 22.3496C12.0534 22.4822 12.0007 22.6094 11.907 22.7032C11.8132 22.7969 11.686 22.8496 11.5534 22.8496C11.4208 22.8496 11.2936 22.7969 11.1999 22.7032C11.1061 22.6094 11.0534 22.4822 11.0534 22.3496C11.0534 22.217 11.1061 22.0898 11.1999 21.9961C11.2936 21.9023 11.4208 21.8496 11.5534 21.8496ZM27.0534 15.8496V22.8496C27.0534 23.4027 27.5003 23.8496 28.0534 23.8496H29.0534C29.6065 23.8496 30.0534 23.4027 30.0534 22.8496V16.3496C30.0534 16.0746 29.8284 15.8496 29.5534 15.8496H27.0534ZM28.0534 22.3496C28.0534 22.217 28.1061 22.0898 28.1999 21.9961C28.2936 21.9023 28.4208 21.8496 28.5534 21.8496C28.686 21.8496 28.8132 21.9023 28.907 21.9961C29.0007 22.0898 29.0534 22.217 29.0534 22.3496C29.0534 22.4822 29.0007 22.6094 28.907 22.7032C28.8132 22.7969 28.686 22.8496 28.5534 22.8496C28.4208 22.8496 28.2936 22.7969 28.1999 22.7032C28.1061 22.6094 28.0534 22.4822 28.0534 22.3496Z" fill="#FF2D55"/>
</g>
<defs>
<clipPath id="clip0_2_97">
<rect width="20" height="16" fill="white" transform="translate(10.0534 11.8496)"/>
</clipPath>
</defs>
</svg>
