<svg width="41" height="41" viewBox="0 0 41 41" fill="none" xmlns="http://www.w3.org/2000/svg">
<path d="M0.0534058 20.25C0.0534058 9.20431 9.05225 0.25 20.0979 0.25C31.1436 0.25 40.1425 9.20431 40.1425 20.25C40.1425 31.2957 31.1436 40.25 20.0979 40.25C9.05225 40.25 0.0534058 31.2957 0.0534058 20.25Z" fill="#FF2D55" fill-opacity="0.2"/>
<g clip-path="url(#clip0_2_90)">
<path d="M14.5534 11.8496C15.2164 11.8496 15.8523 12.113 16.3212 12.5818C16.79 13.0507 17.0534 13.6866 17.0534 14.3496C17.0534 15.0127 16.79 15.6485 16.3212 16.1174C15.8523 16.5862 15.2164 16.8496 14.5534 16.8496C13.8904 16.8496 13.2545 16.5862 12.7856 16.1174C12.3168 15.6485 12.0534 15.0127 12.0534 14.3496C12.0534 13.6866 12.3168 13.0507 12.7856 12.5818C13.2545 12.113 13.8904 11.8496 14.5534 11.8496ZM26.0534 11.8496C26.7164 11.8496 27.3523 12.113 27.8212 12.5818C28.29 13.0507 28.5534 13.6866 28.5534 14.3496C28.5534 15.0127 28.29 15.6485 27.8212 16.1174C27.3523 16.5862 26.7164 16.8496 26.0534 16.8496C25.3904 16.8496 24.7545 16.5862 24.2856 16.1174C23.8168 15.6485 23.5534 15.0127 23.5534 14.3496C23.5534 13.6866 23.8168 13.0507 24.2856 12.5818C24.7545 12.113 25.3904 11.8496 26.0534 11.8496ZM10.0534 21.184C10.0534 19.3434 11.5472 17.8496 13.3878 17.8496H14.7222C15.219 17.8496 15.6909 17.959 16.1159 18.1527C16.0753 18.3777 16.0565 18.6121 16.0565 18.8496C16.0565 20.0434 16.5815 21.1152 17.4097 21.8496C17.4034 21.8496 17.3972 21.8496 17.3878 21.8496H10.719C10.3534 21.8496 10.0534 21.5496 10.0534 21.184ZM22.719 21.8496C22.7128 21.8496 22.7065 21.8496 22.6972 21.8496C23.5284 21.1152 24.0503 20.0434 24.0503 18.8496C24.0503 18.6121 24.0284 18.3809 23.9909 18.1527C24.4159 17.9559 24.8878 17.8496 25.3847 17.8496H26.719C28.5597 17.8496 30.0534 19.3434 30.0534 21.184C30.0534 21.5527 29.7534 21.8496 29.3878 21.8496H22.719ZM17.0534 18.8496C17.0534 18.054 17.3695 17.2909 17.9321 16.7283C18.4947 16.1657 19.2578 15.8496 20.0534 15.8496C20.8491 15.8496 21.6121 16.1657 22.1747 16.7283C22.7373 17.2909 23.0534 18.054 23.0534 18.8496C23.0534 19.6453 22.7373 20.4083 22.1747 20.9709C21.6121 21.5335 20.8491 21.8496 20.0534 21.8496C19.2578 21.8496 18.4947 21.5335 17.9321 20.9709C17.3695 20.4083 17.0534 19.6453 17.0534 18.8496ZM14.0534 27.0152C14.0534 24.7152 15.919 22.8496 18.219 22.8496H21.8878C24.1878 22.8496 26.0534 24.7152 26.0534 27.0152C26.0534 27.4746 25.6815 27.8496 25.219 27.8496H14.8878C14.4284 27.8496 14.0534 27.4777 14.0534 27.0152Z" fill="#FF2D55"/>
</g>
<defs>
<clipPath id="clip0_2_90">
<rect width="20" height="16" fill="white" transform="translate(10.0534 11.8496)"/>
</clipPath>
</defs>
</svg>
