<svg width="65" height="65" viewBox="0 0 65 65" fill="none" xmlns="http://www.w3.org/2000/svg">
<path d="M0.465485 32.7998C0.465485 15.1267 14.8636 0.799805 32.5368 0.799805C50.2099 0.799805 64.608 15.1267 64.608 32.7998C64.608 50.4729 50.2099 64.7998 32.5368 64.7998C14.8636 64.7998 0.465485 50.4729 0.465485 32.7998Z" fill="#FF2D55" fill-opacity="0.2"/>
<g clip-path="url(#clip0_2_43)">
<path d="M24.2155 23.6006C24.2155 21.9459 25.5608 20.6006 27.2155 20.6006H37.7155C39.3702 20.6006 40.7155 21.9459 40.7155 23.6006V41.6006C40.7155 43.2553 39.3702 44.6006 37.7155 44.6006H27.2155C25.5608 44.6006 24.2155 43.2553 24.2155 41.6006V23.6006ZM33.9655 41.6006C33.9655 41.2028 33.8074 40.8212 33.5261 40.5399C33.2448 40.2586 32.8633 40.1006 32.4655 40.1006C32.0677 40.1006 31.6861 40.2586 31.4048 40.5399C31.1235 40.8212 30.9655 41.2028 30.9655 41.6006C30.9655 41.9984 31.1235 42.3799 31.4048 42.6612C31.6861 42.9426 32.0677 43.1006 32.4655 43.1006C32.8633 43.1006 33.2448 42.9426 33.5261 42.6612C33.8074 42.3799 33.9655 41.9984 33.9655 41.6006ZM37.7155 23.6006H27.2155V38.6006H37.7155V23.6006Z" fill="#FF2D55"/>
</g>
<defs>
<clipPath id="clip0_2_43">
<rect width="18" height="24" fill="white" transform="translate(23.4655 20.6006)"/>
</clipPath>
</defs>
</svg>
