<svg width="41" height="41" viewBox="0 0 41 41" fill="none" xmlns="http://www.w3.org/2000/svg">
<path d="M0.0355835 20.8008C0.0355835 9.75509 9.03443 0.800781 20.0801 0.800781C31.1258 0.800781 40.1247 9.75509 40.1247 20.8008C40.1247 31.8465 31.1258 40.8008 20.0801 40.8008C9.03443 40.8008 0.0355835 31.8465 0.0355835 20.8008Z" fill="#FF2D55" fill-opacity="0.2"/>
<g clip-path="url(#clip0_2_354)">
<path d="M26.7419 15.6943C27.1325 16.085 27.1325 16.7193 26.7419 17.11L18.7419 25.11C18.3512 25.5006 17.7169 25.5006 17.3262 25.11L13.3262 21.11C12.9356 20.7193 12.9356 20.085 13.3262 19.6943C13.7169 19.3037 14.3512 19.3037 14.7419 19.6943L18.0356 22.985L25.3294 15.6943C25.72 15.3037 26.3544 15.3037 26.745 15.6943H26.7419Z" fill="#FF2D55"/>
</g>
<defs>
<clipPath id="clip0_2_354">
<rect width="14" height="16" fill="white" transform="translate(13.0356 12.4004)"/>
</clipPath>
</defs>
</svg>
