<svg width="73" height="73" viewBox="0 0 73 73" fill="none" xmlns="http://www.w3.org/2000/svg">
<path d="M22.04 54.2262L17.6947 49.8808C16.4994 48.6855 16.0775 46.9558 16.6119 45.3527C17.0338 44.1012 17.5963 42.4699 18.2713 40.5996H3.39314C2.18377 40.5996 1.05877 39.9527 0.454079 38.898C-0.150608 37.8433 -0.136546 36.5496 0.482204 35.509L7.86502 23.0637C9.69314 19.984 12.9978 18.0996 16.5697 18.0996H28.1431C28.4806 17.5371 28.8181 17.0168 29.1556 16.5105C40.6728 -0.476971 57.8291 -1.03947 68.0666 0.844905C69.6978 1.14022 70.9635 2.4199 71.2728 4.05116C73.1572 14.3027 72.5806 31.4449 55.6072 42.9621C55.115 43.2996 54.5806 43.6371 54.0181 43.9746V55.548C54.0181 59.1199 52.1338 62.4387 49.0541 64.2527L36.6088 71.6355C35.5681 72.2543 34.2744 72.2683 33.2197 71.6637C32.165 71.059 31.5181 69.948 31.5181 68.7246V53.6496C29.5353 54.3387 27.8056 54.9012 26.4978 55.323C24.9228 55.8293 23.2072 55.3933 22.026 54.2262H22.04ZM54.0181 23.7246C55.51 23.7246 56.9407 23.132 57.9956 22.0771C59.0505 21.0222 59.6431 19.5914 59.6431 18.0996C59.6431 16.6077 59.0505 15.177 57.9956 14.1221C56.9407 13.0672 55.51 12.4746 54.0181 12.4746C52.5263 12.4746 51.0956 13.0672 50.0407 14.1221C48.9858 15.177 48.3931 16.6077 48.3931 18.0996C48.3931 19.5914 48.9858 21.0222 50.0407 22.0771C51.0956 23.132 52.5263 23.7246 54.0181 23.7246Z" fill="#FF2D55"/>
</svg>
