<svg width="18" height="21" viewBox="0 0 18 21" fill="none" xmlns="http://www.w3.org/2000/svg">
<g clip-path="url(#clip0_2_380)">
<path d="M8.91516 5.60938C6.43079 5.60938 4.42688 7.61328 4.42688 10.0977C4.42688 12.582 6.43079 14.5859 8.91516 14.5859C11.3995 14.5859 13.4034 12.582 13.4034 10.0977C13.4034 7.61328 11.3995 5.60938 8.91516 5.60938ZM8.91516 13.0156C7.30969 13.0156 5.99719 11.707 5.99719 10.0977C5.99719 8.48828 7.30579 7.17969 8.91516 7.17969C10.5245 7.17969 11.8331 8.48828 11.8331 10.0977C11.8331 11.707 10.5206 13.0156 8.91516 13.0156ZM14.6339 5.42578C14.6339 6.00781 14.1652 6.47266 13.587 6.47266C13.005 6.47266 12.5402 6.00391 12.5402 5.42578C12.5402 4.84766 13.0089 4.37891 13.587 4.37891C14.1652 4.37891 14.6339 4.84766 14.6339 5.42578ZM17.6066 6.48828C17.5402 5.08594 17.2198 3.84375 16.1925 2.82031C15.1691 1.79687 13.9269 1.47656 12.5245 1.40625C11.0792 1.32422 6.74719 1.32422 5.30188 1.40625C3.90344 1.47266 2.66125 1.79297 1.63391 2.81641C0.606567 3.83984 0.290161 5.08203 0.219849 6.48438C0.137817 7.92969 0.137817 12.2617 0.219849 13.707C0.286255 15.1094 0.606567 16.3516 1.63391 17.375C2.66125 18.3984 3.89954 18.7188 5.30188 18.7891C6.74719 18.8711 11.0792 18.8711 12.5245 18.7891C13.9269 18.7227 15.1691 18.4023 16.1925 17.375C17.2159 16.3516 17.5363 15.1094 17.6066 13.707C17.6886 12.2617 17.6886 7.93359 17.6066 6.48828ZM15.7394 15.2578C15.4347 16.0234 14.8448 16.6133 14.0753 16.9219C12.923 17.3789 10.1886 17.2734 8.91516 17.2734C7.64172 17.2734 4.90344 17.375 3.755 16.9219C2.98938 16.6172 2.39954 16.0273 2.09094 15.2578C1.63391 14.1055 1.73938 11.3711 1.73938 10.0977C1.73938 8.82422 1.63782 6.08594 2.09094 4.9375C2.39563 4.17188 2.98547 3.58203 3.755 3.27344C4.90735 2.81641 7.64172 2.92187 8.91516 2.92187C10.1886 2.92187 12.9269 2.82031 14.0753 3.27344C14.8409 3.57812 15.4308 4.16797 15.7394 4.9375C16.1964 6.08984 16.0909 8.82422 16.0909 10.0977C16.0909 11.3711 16.1964 14.1094 15.7394 15.2578Z" fill="#9CA3AF"/>
</g>
<defs>
<clipPath id="clip0_2_380">
<rect width="17.5" height="20" fill="white" transform="translate(0.161255 0.101562)"/>
</clipPath>
</defs>
</svg>
