<svg width="23" height="21" viewBox="0 0 23 21" fill="none" xmlns="http://www.w3.org/2000/svg">
<g clip-path="url(#clip0_2_384)">
<path d="M21.6322 4.94855C21.3869 4.02473 20.664 3.29715 19.7461 3.05023C18.0824 2.60156 11.4113 2.60156 11.4113 2.60156C11.4113 2.60156 4.74021 2.60156 3.0765 3.05023C2.15865 3.29719 1.43576 4.02473 1.19041 4.94855C0.744629 6.62305 0.744629 10.1167 0.744629 10.1167C0.744629 10.1167 0.744629 13.6104 1.19041 15.2849C1.43576 16.2087 2.15865 16.906 3.0765 17.1529C4.74021 17.6016 11.4113 17.6016 11.4113 17.6016C11.4113 17.6016 18.0824 17.6016 19.7461 17.1529C20.664 16.906 21.3869 16.2087 21.6322 15.2849C22.078 13.6104 22.078 10.1167 22.078 10.1167C22.078 10.1167 22.078 6.62305 21.6322 4.94855ZM9.22947 13.2887V6.94473L14.8052 10.1168L9.22947 13.2887Z" fill="#9CA3AF"/>
</g>
<defs>
<clipPath id="clip0_2_384">
<rect width="22.5" height="20" fill="white" transform="translate(0.161255 0.101562)"/>
</clipPath>
</defs>
</svg>
