<svg width="19" height="21" viewBox="0 0 19 21" fill="none" xmlns="http://www.w3.org/2000/svg">
<g clip-path="url(#clip0_2_382)">
<path d="M18.1613 8.30117C16.4416 8.30529 14.764 7.76896 13.3656 6.76797V13.7492C13.3651 15.0422 12.9699 16.3043 12.2328 17.3666C11.4957 18.4289 10.4519 19.2409 9.24083 19.694C8.0298 20.147 6.70932 20.2195 5.45595 19.9019C4.20257 19.5842 3.07606 18.8914 2.22704 17.9162C1.37801 16.941 0.846946 15.7299 0.704848 14.4447C0.562749 13.1595 0.816393 11.8616 1.43186 10.7245C2.04733 9.58735 2.99529 8.66522 4.14899 8.0814C5.30268 7.49757 6.60711 7.27988 7.88787 7.45742V10.9688C7.3018 10.7844 6.67245 10.79 6.08972 10.9846C5.50699 11.1793 5.00067 11.5531 4.64306 12.0527C4.28545 12.5523 4.09485 13.1521 4.09847 13.7665C4.10209 14.3808 4.29974 14.9783 4.66321 15.4737C5.02668 15.969 5.53737 16.3369 6.12235 16.5246C6.70734 16.7124 7.3367 16.7106 7.92056 16.5193C8.50443 16.3281 9.01294 15.9572 9.37347 15.4598C9.734 14.9623 9.92812 14.3636 9.92811 13.7492V0.101562H13.3656C13.3632 0.391852 13.3875 0.681745 13.4383 0.967578C13.5577 1.60566 13.8061 2.21266 14.1682 2.75146C14.5303 3.29026 14.9984 3.74953 15.5441 4.10117C16.3204 4.61449 17.2306 4.88809 18.1613 4.88789V8.30117Z" fill="#9CA3AF"/>
</g>
<defs>
<clipPath id="clip0_2_382">
<rect width="17.5" height="20" fill="white" transform="translate(0.661255 0.101562)"/>
</clipPath>
</defs>
</svg>
