<svg width="21" height="21" viewBox="0 0 21 21" fill="none" xmlns="http://www.w3.org/2000/svg">
<g clip-path="url(#clip0_2_378)">
<path d="M18.1054 6.02818C18.1181 6.20584 18.1181 6.38353 18.1181 6.56119C18.1181 11.9799 13.9938 18.2236 6.45567 18.2236C4.13332 18.2236 1.97598 17.551 0.161255 16.3835C0.491216 16.4216 0.808442 16.4343 1.1511 16.4343C3.06731 16.4343 4.83129 15.7871 6.23993 14.683C4.4379 14.6449 2.92774 13.4647 2.40743 11.8404C2.66125 11.8784 2.91504 11.9038 3.18157 11.9038C3.54958 11.9038 3.91762 11.853 4.26024 11.7642C2.38208 11.3835 0.973403 9.73377 0.973403 7.74139V7.69064C1.51907 7.99521 2.15364 8.18557 2.82618 8.21092C1.72211 7.47486 0.998794 6.21854 0.998794 4.79721C0.998794 4.0358 1.2018 3.33783 1.55715 2.72869C3.57493 5.216 6.60793 6.84033 10.0089 7.01803C9.94547 6.71346 9.90739 6.39623 9.90739 6.07897C9.90739 3.82006 11.7348 1.97998 14.0064 1.97998C15.1866 1.97998 16.2525 2.4749 17.0013 3.27439C17.9277 3.09674 18.816 2.75408 19.6028 2.28455C19.2982 3.23635 18.651 4.03584 17.8008 4.54342C18.6257 4.45463 19.4252 4.22615 20.1612 3.90893C19.6029 4.72107 18.9049 5.44439 18.1054 6.02818Z" fill="#9CA3AF"/>
</g>
<defs>
<clipPath id="clip0_2_378">
<rect width="20" height="20" fill="white" transform="translate(0.161255 0.101562)"/>
</clipPath>
</defs>
</svg>
