<svg width="65" height="65" viewBox="0 0 65 65" fill="none" xmlns="http://www.w3.org/2000/svg">
<path d="M0.690918 32.7998C0.690918 15.1267 15.0891 0.799805 32.7622 0.799805C50.4353 0.799805 64.8335 15.1267 64.8335 32.7998C64.8335 50.4729 50.4353 64.7998 32.7622 64.7998C15.0891 64.7998 0.690918 50.4729 0.690918 32.7998Z" fill="#FF2D55" fill-opacity="0.2"/>
<g clip-path="url(#clip0_2_55)">
<path d="M32.6909 20.6006C35.8735 20.6006 38.9258 21.8649 41.1762 24.1153C43.4266 26.3657 44.6909 29.418 44.6909 32.6006C44.6909 35.7832 43.4266 38.8354 41.1762 41.0859C38.9258 43.3363 35.8735 44.6006 32.6909 44.6006C29.5083 44.6006 26.4561 43.3363 24.2056 41.0859C21.9552 38.8354 20.6909 35.7832 20.6909 32.6006C20.6909 29.418 21.9552 26.3657 24.2056 24.1153C26.4561 21.8649 29.5083 20.6006 32.6909 20.6006ZM31.5659 26.2256V32.6006C31.5659 32.9756 31.7534 33.3271 32.0675 33.5381L36.5675 36.5381C37.0831 36.885 37.7815 36.7443 38.1284 36.224C38.4753 35.7037 38.3347 35.01 37.8144 34.6631L33.8159 32.0006V26.2256C33.8159 25.6021 33.3144 25.1006 32.6909 25.1006C32.0675 25.1006 31.5659 25.6021 31.5659 26.2256Z" fill="#FF2D55"/>
</g>
<defs>
<clipPath id="clip0_2_55">
<rect width="24" height="24" fill="white" transform="translate(20.6909 20.6006)"/>
</clipPath>
</defs>
</svg>
